<?xml version="1.0" encoding="UTF-8"?>
<svg version="1.1" xmlns="http://www.w3.org/2000/svg" width="512" height="512">
<path d="M0 0 C2.00186364 -0.00713129 4.00372532 -0.0148344 6.00558472 -0.02307129 C10.17565608 -0.03641019 14.34553848 -0.03813377 18.515625 -0.03222656 C22.73954749 -0.0275168 26.96271963 -0.04136812 31.18652344 -0.07324219 C75.40723997 -0.40329901 75.40723997 -0.40329901 93.33003235 4.77677917 C97.01029429 5.83252963 100.72802813 6.73383466 104.44291687 7.65879822 C125.24202209 12.98600184 149.80713861 20.59302592 162.56640625 39.1171875 C166.44681105 46.34430245 167.69207104 53.39066103 165.7421875 61.46875 C159.21610123 77.78396567 145.75043427 88.968709 130.7421875 97.46875 C129.7521875 97.46875 128.7621875 97.46875 127.7421875 97.46875 C127.7421875 98.12875 127.7421875 98.78875 127.7421875 99.46875 C123.58116547 101.8061589 119.12170429 103.57795837 114.7421875 105.46875 C114.07880371 105.75975586 113.41541992 106.05076172 112.73193359 106.35058594 C102.2807773 110.91718354 91.77432404 114.57962333 80.7421875 117.46875 C80.05157227 117.65034668 79.36095703 117.83194336 78.64941406 118.01904297 C70.49693764 120.1267843 62.30462487 121.81230301 53.9921875 123.15625 C52.89511475 123.33534912 52.89511475 123.33534912 51.77587891 123.51806641 C10.10619793 129.89259586 -32.01708308 125.02437018 -69.7578125 106.28125 C-70.45277832 105.93618408 -71.14774414 105.59111816 -71.86376953 105.2355957 C-74.78253432 103.77119455 -77.53704301 102.28259633 -80.2578125 100.46875 C-80.2578125 99.80875 -80.2578125 99.14875 -80.2578125 98.46875 C-74.79067779 99.4066783 -69.53911371 100.63923855 -64.2578125 102.34375 C-23.59376483 115.16746492 25.26081126 119.00440167 64.7421875 100.46875 C67.93988681 98.72223008 71.06244039 96.90825661 74.15625 94.984375 C76.7421875 93.46875 76.7421875 93.46875 79.51171875 92.3828125 C82.34526516 91.22160434 82.53506597 90.20489214 83.7421875 87.46875 C85.7421875 85.21875 85.7421875 85.21875 87.7421875 83.46875 C88.4021875 83.46875 89.0621875 83.46875 89.7421875 83.46875 C90.44929428 81.81883418 91.10781406 80.1479738 91.7421875 78.46875 C92.45375 77.293125 92.45375 77.293125 93.1796875 76.09375 C97.69136375 68.51413391 98.61233838 63.23793309 96.7421875 54.46875 C93.39261739 45.9015803 87.29110023 39.56407855 78.95703125 35.625 C38.87490452 20.17909375 -17.61058375 40.04987286 -54.61328125 56.29296875 C-61.74950484 59.5501225 -68.53463001 63.43982028 -75.3203125 67.36279297 C-77.93431245 68.85490736 -80.59490311 70.25373452 -83.2578125 71.65625 C-87.86104344 74.13929111 -92.0585602 77.0414627 -96.26171875 80.1484375 C-98.2578125 81.46875 -98.2578125 81.46875 -100.2578125 81.46875 C-100.2578125 82.12875 -100.2578125 82.78875 -100.2578125 83.46875 C-101.92447917 84.13541667 -103.59114583 84.80208333 -105.2578125 85.46875 C-105.2578125 86.12875 -105.2578125 86.78875 -105.2578125 87.46875 C-106.69921875 88.66796875 -106.69921875 88.66796875 -108.8203125 90.15625 C-130.90626975 106.99852872 -149.1782567 131.79779784 -153.5078125 159.65625 C-156.17430639 181.46436075 -151.06528055 200.74051791 -138.2578125 218.46875 C-136.31708778 220.86495093 -134.30354781 223.16074094 -132.2578125 225.46875 C-132.2578125 226.12875 -132.2578125 226.78875 -132.2578125 227.46875 C-131.2678125 227.79875 -130.2778125 228.12875 -129.2578125 228.46875 C-126.5703125 230.90625 -126.5703125 230.90625 -124.2578125 233.46875 C-124.2578125 234.12875 -124.2578125 234.78875 -124.2578125 235.46875 C-123.2678125 235.79875 -122.2778125 236.12875 -121.2578125 236.46875 C-118.5703125 238.90625 -118.5703125 238.90625 -116.2578125 241.46875 C-116.2578125 242.12875 -116.2578125 242.78875 -116.2578125 243.46875 C-114.93924249 244.16416021 -113.60197418 244.82419465 -112.2578125 245.46875 C-110.69272411 246.6252061 -109.15163481 247.81466825 -107.6328125 249.03125 C-104.59715247 251.4884081 -104.59715247 251.4884081 -101.2578125 253.46875 C-101.2578125 254.12875 -101.2578125 254.78875 -101.2578125 255.46875 C-100.74863281 255.55769531 -100.23945313 255.64664063 -99.71484375 255.73828125 C-96.2392505 256.77156573 -93.14871541 258.48925137 -89.9453125 260.15625 C-70.67211095 269.90230785 -51.89446161 274.95191365 -30.2578125 275.46875 C-29.22527344 275.49710937 -28.19273437 275.52546875 -27.12890625 275.5546875 C-24.16658216 275.59413256 -21.21920585 275.54951527 -18.2578125 275.46875 C-17.20335937 275.45199219 -16.14890625 275.43523437 -15.0625 275.41796875 C2.05800449 274.74770291 19.47110946 270.72768895 35.7421875 265.46875 C36.38397949 265.26217773 37.02577148 265.05560547 37.68701172 264.84277344 C45.66719907 262.30035198 45.66719907 262.30035198 53.48828125 259.3203125 C55.7421875 258.46875 55.7421875 258.46875 58.7421875 258.46875 C58.7421875 259.45875 58.7421875 260.44875 58.7421875 261.46875 C56.22265625 263.51171875 56.22265625 263.51171875 52.9296875 265.65625 C51.85074219 266.37167969 50.77179688 267.08710938 49.66015625 267.82421875 C46.7421875 269.46875 46.7421875 269.46875 43.7421875 269.46875 C43.7421875 270.12875 43.7421875 270.78875 43.7421875 271.46875 C42.23608398 272.44262695 42.23608398 272.44262695 40.11328125 273.45703125 C39.33331787 273.83126221 38.55335449 274.20549316 37.74975586 274.59106445 C36.9016333 274.98382568 36.05351074 275.37658691 35.1796875 275.78125 C34.31287354 276.18496826 33.44605957 276.58868652 32.55297852 277.00463867 C19.38767685 283.02607206 5.89997869 286.65291125 -8.2578125 289.46875 C-9.86462891 289.79359375 -9.86462891 289.79359375 -11.50390625 290.125 C-44.36597882 296.18910023 -80.56244616 292.7920059 -112.31445312 283.05371094 C-115.25673564 282.16806911 -118.22870596 281.39350338 -121.1953125 280.59375 C-149.79548332 272.33734965 -176.4689045 258.79614212 -200.0078125 240.59375 C-200.62930176 240.11695801 -201.25079102 239.64016602 -201.89111328 239.14892578 C-203.38637244 237.9709069 -204.8278639 236.7252433 -206.2578125 235.46875 C-206.2578125 234.80875 -206.2578125 234.14875 -206.2578125 233.46875 C-207.58873914 232.79729151 -208.92264264 232.1317309 -210.2578125 231.46875 C-211.72124058 230.18691519 -213.13726679 228.8494479 -214.5078125 227.46875 C-215.21421875 226.7675 -215.920625 226.06625 -216.6484375 225.34375 C-218.2578125 223.46875 -218.2578125 223.46875 -218.2578125 221.46875 C-218.80953125 221.23285156 -219.36125 220.99695313 -219.9296875 220.75390625 C-223.33037425 218.87668151 -225.26720248 215.99086894 -227.5078125 212.90625 C-227.98871338 212.24512207 -228.46961426 211.58399414 -228.96508789 210.90283203 C-232.35046761 206.09294756 -235.18197814 201.15868427 -237.6953125 195.84375 C-238.00049805 195.20107178 -238.30568359 194.55839355 -238.62011719 193.89624023 C-239.57290251 191.77616129 -240.42971314 189.6407145 -241.2578125 187.46875 C-241.61681641 186.52894287 -241.97582031 185.58913574 -242.34570312 184.62084961 C-245.4001269 175.80126903 -245.9756178 167.49854554 -245.8828125 158.28125 C-245.88016388 157.55674652 -245.87751526 156.83224304 -245.87478638 156.08578491 C-245.79407327 144.3041076 -244.36378448 134.16711247 -239.2578125 123.46875 C-238.72106053 122.23897649 -238.1858837 121.0085142 -237.65234375 119.77734375 C-233.55027467 110.90089499 -228.07494463 103.26391974 -222.2578125 95.46875 C-221.5978125 94.47875 -220.9378125 93.48875 -220.2578125 92.46875 C-219.5978125 92.46875 -218.9378125 92.46875 -218.2578125 92.46875 C-217.57161219 91.14536368 -216.90994789 89.80925052 -216.2578125 88.46875 C-214.2578125 85.71875 -214.2578125 85.71875 -212.2578125 83.46875 C-211.5978125 83.46875 -210.9378125 83.46875 -210.2578125 83.46875 C-209.9278125 82.80875 -209.5978125 82.14875 -209.2578125 81.46875 C-208.9278125 80.80875 -208.5978125 80.14875 -208.2578125 79.46875 C-207.5978125 79.46875 -206.9378125 79.46875 -206.2578125 79.46875 C-205.85755859 78.61216797 -205.85755859 78.61216797 -205.44921875 77.73828125 C-203.876441 74.74226855 -201.84246396 73.25237697 -199.1953125 71.15625 C-198.215625 70.37765625 -197.2359375 69.5990625 -196.2265625 68.796875 C-195.246875 68.02859375 -194.2671875 67.2603125 -193.2578125 66.46875 C-192.38125 65.76234375 -191.5046875 65.0559375 -190.6015625 64.328125 C-184.51746697 59.46875 -184.51746697 59.46875 -182.2578125 59.46875 C-182.2578125 58.80875 -182.2578125 58.14875 -182.2578125 57.46875 C-180.23828125 55.98828125 -180.23828125 55.98828125 -177.4453125 54.28125 C-173.0119025 51.55657475 -173.0119025 51.55657475 -168.640625 48.734375 C-161.46343594 43.97866918 -153.94143084 40.16698424 -146.20751953 36.42138672 C-144.22873136 35.45454081 -142.26488646 34.461129 -140.30078125 33.46484375 C-125.23087198 25.92531971 -109.32535566 20.44615208 -93.2578125 15.46875 C-92.36787598 15.19289063 -91.47793945 14.91703125 -90.56103516 14.6328125 C-75.13840257 9.94539962 -59.38499532 6.96213954 -43.51956177 4.21983337 C-40.76867452 3.74224964 -38.02736767 3.23194437 -35.28793335 2.6927948 C-23.48204562 0.44620394 -11.99491001 -0.00530234 0 0 Z " fill="#3177BB" transform="translate(245.2578125,-0.46875)"/>
<path d="M0 0 C4.73468913 0.48207744 7.08744634 2.41060004 10.625 5.5 C11.68695039 6.41600215 12.74946254 7.33135339 13.8125 8.24609375 C14.34488281 8.70870605 14.87726563 9.17131836 15.42578125 9.64794922 C17.78288065 11.67239346 20.20527638 13.61366009 22.625 15.5625 C27.1324875 19.2374357 31.46917899 23.06543391 35.76171875 26.98828125 C37.67295961 28.70606318 39.61789912 30.33463957 41.625 31.9375 C42.800625 32.9584375 42.800625 32.9584375 44 34 C44 34.66 44 35.32 44 36 C44.54011719 36.25523438 45.08023437 36.51046875 45.63671875 36.7734375 C48.92178079 38.47841185 51.25617478 41.0034583 53.8125 43.625 C54.3472998 44.16769531 54.88209961 44.71039063 55.43310547 45.26953125 C59.45559867 49.37864775 63.30578445 53.59258448 67 58 C67.8811396 59.02896349 68.76268307 60.05758121 69.64453125 61.0859375 C70.57608787 62.1818099 71.5070782 63.27816394 72.4375 64.375 C72.88754395 64.89964844 73.33758789 65.42429687 73.80126953 65.96484375 C77 69.77102245 77 69.77102245 77 72 C77.66 72 78.32 72 79 72 C80.64401089 74.15432654 82.14734479 76.29689153 83.625 78.5625 C84.0694043 79.24143311 84.51380859 79.92036621 84.97167969 80.61987305 C100.38916377 104.51586976 108.11826803 129.84251697 103.38671875 158.61328125 C99.94795262 172.71676702 92.22676689 186.82068078 83 198 C82.34 198 81.68 198 81 198 C80.31775051 199.32542742 79.65469461 200.66074752 79 202 C74.20029546 207.96393493 68.70517757 213.38734108 63.3125 218.8125 C62.77842529 219.35124756 62.24435059 219.88999512 61.6940918 220.44506836 C52.10063818 230 52.10063818 230 49 230 C48.67 230.99 48.34 231.98 48 233 C45.9375 233.6875 45.9375 233.6875 44 234 C44 234.66 44 235.32 44 236 C41.7670616 237.83562936 39.52275619 239.55222778 37.1875 241.25 C36.48061035 241.77142578 35.7737207 242.29285156 35.04541016 242.83007812 C33.51353663 243.95907258 31.97958843 245.08525609 30.44384766 246.20898438 C27.92856851 248.05234979 25.42238126 249.90752793 22.91796875 251.765625 C21.23718652 253.01069663 19.55620096 254.25549383 17.875 255.5 C16.68620239 256.38026855 16.68620239 256.38026855 15.47338867 257.27832031 C3.63916269 266 3.63916269 266 1 266 C1 266.66 1 267.32 1 268 C-0.7578125 269.3671875 -0.7578125 269.3671875 -3.125 270.875 C-3.94355469 271.4009375 -4.76210938 271.926875 -5.60546875 272.46875 C-6.39566406 272.9740625 -7.18585938 273.479375 -8 274 C-9.1475898 274.78911836 -10.29374599 275.5803322 -11.4375 276.375 C-14 278 -14 278 -16 278 C-16 278.66 -16 279.32 -16 280 C-17.65714156 281.23830358 -19.38028161 282.38848228 -21.125 283.5 C-26.70301375 287.11242795 -32.1067534 290.90335552 -37.45361328 294.84960938 C-41.78478218 298 -41.78478218 298 -44 298 C-44 298.66 -44 299.32 -44 300 C-46.87056411 302.13623376 -49.53792561 303.81918828 -52.875 305.125 C-53.926875 305.558125 -53.926875 305.558125 -55 306 C-55 306.66 -55 307.32 -55 308 C-56.84375 309.48828125 -56.84375 309.48828125 -59.5 311.3125 C-70.02092316 318.78113993 -79.87667485 327.13012748 -89.6875 335.5 C-90.53308472 336.21978027 -90.53308472 336.21978027 -91.39575195 336.95410156 C-93.96631221 339.16465134 -96.40273902 341.41353175 -98.76953125 343.84375 C-101 346 -101 346 -103 346 C-103.33 346.66 -103.66 347.32 -104 348 C-104.33 348.66 -104.66 349.32 -105 350 C-105.66 350 -106.32 350 -107 350 C-107.33 350.66 -107.66 351.32 -108 352 C-108.33 352.66 -108.66 353.32 -109 354 C-109.66 354 -110.32 354 -111 354 C-111.67154617 355.3308824 -112.33696886 356.66485509 -113 358 C-114.37630789 359.61853807 -115.79789059 361.19910763 -117.25 362.75 C-123.84053718 369.85049524 -123.84053718 369.85049524 -129 378 C-129.66 378 -130.32 378 -131 378 C-131.68792886 379.65800365 -132.34821637 381.32745693 -133 383 C-134.76737416 386.13525472 -136.71376544 389.16609501 -138.63476562 392.20898438 C-140.70205988 395.56274793 -142.3547349 398.75456156 -143.66015625 402.48046875 C-144.10230469 403.64191406 -144.54445313 404.80335938 -145 406 C-145.66 406 -146.32 406 -147 406 C-147.226875 407.134375 -147.45375 408.26875 -147.6875 409.4375 C-148.88761114 414.92496469 -150.53662987 420.26822982 -152.23510742 425.61889648 C-157.93000131 444.19370967 -156.43069669 466.32623443 -152 485 C-151.58569971 487.33012526 -151.18841536 489.66337506 -150.8125 492 C-150.57466797 493.4540625 -150.57466797 493.4540625 -150.33203125 494.9375 C-150.22246094 495.618125 -150.11289062 496.29875 -150 497 C-153.65329333 496.44724084 -156.05238949 495.56603672 -159.0625 493.4375 C-159.84625 492.89222656 -160.63 492.34695313 -161.4375 491.78515625 C-162.283125 491.19605469 -163.12875 490.60695313 -164 490 C-165.85337709 488.79045594 -167.70759536 487.58220017 -169.5625 486.375 C-181.45354835 478.43753588 -193.6221172 469.86685069 -204 460 C-204 459.34 -204 458.68 -204 458 C-204.8353125 457.5978125 -204.8353125 457.5978125 -205.6875 457.1875 C-208.73960435 455.62020317 -210.71667648 453.53702613 -213 451 C-213 450.34 -213 449.68 -213 449 C-213.99 448.67 -214.98 448.34 -216 448 C-217.86818997 445.89132089 -219.60213778 443.79306723 -221.3125 441.5625 C-221.80306885 440.92723389 -222.2936377 440.29196777 -222.79907227 439.63745117 C-233.79118945 425.21609922 -240.64922221 409.42649505 -239 391 C-231.49408631 351.36066122 -194.89108286 325.86833333 -164 304 C-161.24051073 302.16370983 -158.46046925 300.39256741 -155.6328125 298.6640625 C-153.55767053 297.35247425 -151.55635448 296.00346469 -149.5546875 294.5859375 C-148.96413574 294.16803955 -148.37358398 293.7501416 -147.76513672 293.31958008 C-146.61407855 292.49982925 -145.46704204 291.6743929 -144.32470703 290.8425293 C-140.32769069 288 -140.32769069 288 -137 288 C-137 287.34 -137 286.68 -137 286 C-134.76171875 284.51953125 -134.76171875 284.51953125 -131.6875 282.8125 C-125.65936631 279.39303235 -119.81906912 275.76158449 -114 272 C-111.77133309 270.56171677 -109.54228368 269.1240492 -107.3125 267.6875 C-106.72581543 267.30907959 -106.13913086 266.93065918 -105.53466797 266.54077148 C-101.78814061 264.13041469 -98.01829224 261.76156325 -94.23120117 259.41552734 C-83.11882954 252.5276371 -72.21005259 245.33412987 -61.48046875 237.86328125 C-60.75794922 237.36111084 -60.03542969 236.85894043 -59.29101562 236.34155273 C-57.92826782 235.39145686 -56.5686724 234.43681681 -55.21289062 233.47680664 C-51.87527693 231.14600465 -48.79435856 229.51774343 -45 228 C-45 227.34 -45 226.68 -45 226 C-43.63789086 225.0465236 -42.26704889 224.10357359 -40.859375 223.21875 C-38.0291441 221.36364067 -35.39761471 219.25704718 -32.734375 217.171875 C-31 216 -31 216 -29 216 C-29 215.34 -29 214.68 -29 214 C-27.33333333 213.33333333 -25.66666667 212.66666667 -24 212 C-24 211.34 -24 210.68 -24 210 C-22.19921875 208.40625 -22.19921875 208.40625 -19.6875 206.5 C-14.60175433 202.55328724 -9.92758726 198.31806525 -5.25 193.90625 C-3 192 -3 192 -1 192 C-0.67 191.34 -0.34 190.68 0 190 C0.33 189.34 0.66 188.68 1 188 C1.66 188 2.32 188 3 188 C3.33 187.34 3.66 186.68 4 186 C4.33 185.34 4.66 184.68 5 184 C5.66 184 6.32 184 7 184 C7.268125 183.45988281 7.53625 182.91976562 7.8125 182.36328125 C9.39541919 179.21306379 11.67855712 176.80415988 14 174.1875 C25.60676345 160.75750345 34.44536796 145.91187075 40 129 C40.433125 127.68128906 40.433125 127.68128906 40.875 126.3359375 C48.96439602 100.58987902 43.63652021 72.64655835 32 49 C31.46761719 47.90816406 30.93523437 46.81632812 30.38671875 45.69140625 C27.53425052 39.88876175 27.53425052 39.88876175 24.32421875 34.28125 C23 32 23 32 23 30 C22.34 30 21.68 30 21 30 C20.01902071 28.56267908 19.11915239 27.07007618 18.25 25.5625 C14.29148926 19.0972138 9.53677711 13.42534561 4.62402344 7.66430664 C4.02750977 6.95910889 3.43099609 6.25391113 2.81640625 5.52734375 C2.27443604 4.89562256 1.73246582 4.26390137 1.17407227 3.61303711 C0 2 0 2 0 0 Z " fill="#A9CE46" transform="translate(408,15)"/>
<path d="M0 0 C4.73468913 0.48207744 7.08744634 2.41060004 10.625 5.5 C11.68695039 6.41600215 12.74946254 7.33135339 13.8125 8.24609375 C14.34488281 8.70870605 14.87726563 9.17131836 15.42578125 9.64794922 C17.78288065 11.67239346 20.20527638 13.61366009 22.625 15.5625 C27.1324875 19.2374357 31.46917899 23.06543391 35.76171875 26.98828125 C37.67295961 28.70606318 39.61789912 30.33463957 41.625 31.9375 C42.40875 32.618125 43.1925 33.29875 44 34 C44 34.66 44 35.32 44 36 C44.54011719 36.25523438 45.08023438 36.51046875 45.63671875 36.7734375 C48.92178079 38.47841185 51.25617478 41.0034583 53.8125 43.625 C54.3472998 44.16769531 54.88209961 44.71039063 55.43310547 45.26953125 C59.45559867 49.37864775 63.30578445 53.59258448 67 58 C67.8811396 59.02896349 68.76268307 60.05758121 69.64453125 61.0859375 C70.57608787 62.1818099 71.5070782 63.27816394 72.4375 64.375 C72.88754395 64.89964844 73.33758789 65.42429687 73.80126953 65.96484375 C77 69.77102245 77 69.77102245 77 72 C77.66 72 78.32 72 79 72 C80.64401089 74.15432654 82.14734479 76.29689153 83.625 78.5625 C84.0694043 79.24143311 84.51380859 79.92036621 84.97167969 80.61987305 C94.94182199 96.07287993 104.27199709 113.5202623 104.0625 132.375 C104.05347656 133.43460938 104.04445313 134.49421875 104.03515625 135.5859375 C104.02355469 136.38257813 104.01195312 137.17921875 104 138 C100.99000431 134.99000431 100.9237894 132.36551699 100.75 128.3125 C99.82997282 117.45905439 95.7664744 107.01966979 91.05859375 97.28125 C90 95 90 95 88.875 91.375 C88.58625 90.59125 88.2975 89.8075 88 89 C86.515 88.505 86.515 88.505 85 88 C84.731875 87.319375 84.46375 86.63875 84.1875 85.9375 C82.74193151 82.36162006 80.6374503 79.7664749 78.2421875 76.76953125 C77 75 77 75 77 73 C75.6846659 72.29848848 74.34882408 71.63474075 73 71 C72.34 70.34 71.68 69.68 71 69 C71 68.01 71 67.02 71 66 C70.34 66 69.68 66 69 66 C69 65.34 69 64.68 69 64 C68.34 64 67.68 64 67 64 C66.03862889 62.58646753 65.08387218 61.16783975 64.16845703 59.72412109 C62.20893709 56.83274419 59.82377505 54.35335157 57.4375 51.8125 C56.95603516 51.29236328 56.47457031 50.77222656 55.97851562 50.23632812 C54.08238341 48.19413896 52.18627376 46.17599114 50.16015625 44.26171875 C49 43 49 43 49 41 C47.67193859 40.3228921 46.33755249 39.65816075 45 39 C43.25390625 37.37890625 43.25390625 37.37890625 41.5625 35.5625 C38.88641127 32.79511614 36.33909535 30.93316047 33 29 C31.31288577 27.3540349 29.6454378 25.68762851 28 24 C27.236875 23.443125 26.47375 22.88625 25.6875 22.3125 C25.130625 21.879375 24.57375 21.44625 24 21 C24 20.34 24 19.68 24 19 C23.01 19 22.02 19 21 19 C19.28641357 17.38161281 17.6292274 15.70328319 16 14 C12.02775732 10.19174899 9.46069939 8.03310529 4 7 C0 2.78378378 0 2.78378378 0 0 Z " fill="#B1D05E" transform="translate(408,15)"/>
<path d="M0 0 C2 1.8125 2 1.8125 4 4 C4 4.99 4 5.98 4 7 C4.66 7 5.32 7 6 7 C9 11.38461538 9 11.38461538 9 14 C10.33045985 14.67238293 11.66428576 15.33811656 13 16 C14.52734375 17.55078125 14.52734375 17.55078125 15.9375 19.3125 C17.82180235 21.61393799 19.72048719 23.76174559 21.875 25.8125 C24 28 24 28 24 30 C24.99 30 25.98 30 27 30 C28.39453125 31.42578125 28.39453125 31.42578125 29.8125 33.3125 C32.51963691 36.67611762 35.06657024 38.17049778 39 40 C39.33 40.99 39.66 41.98 40 43 C41.81715867 44.07847659 41.81715867 44.07847659 44 45 C45.52817493 45.90437447 47.04847579 46.82213014 48.5625 47.75 C53.08673419 50.48450037 57.68101369 53.05020737 62.3359375 55.5546875 C64.80895698 56.89635496 67.24742271 58.28718073 69.6875 59.6875 C72.96620949 61.51478783 76.19636983 62.8961761 79.734375 64.12890625 C82.57270672 65.22019586 85.26293335 66.55028671 88 67.875 C94.86927679 71.08702294 101.84984862 73.30776853 109.10693359 75.43408203 C110.82588745 75.94795036 112.53296784 76.501127 114.23828125 77.05859375 C123.6668168 80.13754373 133.28513502 82.071389 143 84 C142.67 84.99 142.34 85.98 142 87 C102.79854395 78.6995638 61.6853617 64.93877681 31.1796875 37.92578125 C28.9530062 35.87101701 28.9530062 35.87101701 26 34 C26 33.34 26 32.68 26 32 C24.66907336 31.32854151 23.33516986 30.6629809 22 30 C20.53657192 28.71816519 19.12054571 27.3806979 17.75 26 C17.04359375 25.29875 16.3371875 24.5975 15.609375 23.875 C14 22 14 22 14 20 C13.17242188 19.65582031 13.17242188 19.65582031 12.328125 19.3046875 C8.82910423 17.34382687 7.02215442 14.36810413 4.75 11.125 C4.06164062 10.18720703 4.06164062 10.18720703 3.359375 9.23046875 C0.92447866 5.80277241 0 4.31369399 0 0 Z " fill="#2565A8" transform="translate(13,201)"/>
<path d="M0 0 C0.79115204 -0.00421463 1.58230408 -0.00842926 2.39743042 -0.01277161 C10.31126558 -0.04245698 18.22405573 0.04709324 26.13671875 0.17578125 C26.13671875 0.50578125 26.13671875 0.83578125 26.13671875 1.17578125 C25.35361328 1.22065674 24.57050781 1.26553223 23.76367188 1.31176758 C6.46903525 2.32516463 -10.71746536 3.60089024 -27.86328125 6.17578125 C-28.73726563 6.30678223 -29.61125 6.4377832 -30.51171875 6.57275391 C-68.01685876 12.39421614 -103.24851699 24.16347001 -137.39453125 40.546875 C-140.19189483 41.86050181 -142.9785859 43.07183053 -145.86328125 44.17578125 C-142.68860389 40.58942503 -139.18247852 38.5426555 -134.92578125 36.48828125 C-134.22904297 36.14796875 -133.53230469 35.80765625 -132.81445312 35.45703125 C-115.94768309 27.32668636 -98.75818253 20.68167442 -80.86328125 15.17578125 C-79.97624512 14.90137207 -79.08920898 14.62696289 -78.17529297 14.34423828 C-62.48630021 9.57471369 -46.47257699 6.64421994 -30.34814453 3.81005859 C-27.56406782 3.30333089 -24.80771419 2.75008578 -22.046875 2.1328125 C-14.74200363 0.53278993 -7.46347532 0.00226541 0 0 Z " fill="#538FBF" transform="translate(232.86328125,-0.17578125)"/>
<path d="M0 0 C16.74747437 -0.72922417 31.77338528 0.88118574 48 5 C48.95712891 5.23525391 49.91425781 5.47050781 50.90039062 5.71289062 C73.29229394 11.25362744 101.29204654 18.43806982 114.859375 38.7890625 C116.9985212 42.86305443 118 45.3336669 118 50 C117.34 50 116.68 50 116 50 C115.359375 48.3125 115.359375 48.3125 114.75 46 C111.0821072 34.60460488 102.19813885 28.3520012 91.96630859 22.92041016 C63.51220878 8.67032316 31.32683691 4.02250576 0 1 C0 0.67 0 0.34 0 0 Z " fill="#5F97C5" transform="translate(293,0)"/>
<path d="M0 0 C-31.99291383 14.15215953 -72.02433766 15.51674715 -106 9 C-105.67 8.34 -105.34 7.68 -105 7 C-103.21484375 6.76953125 -103.21484375 6.76953125 -100.9375 6.8125 C-100.20402344 6.81894531 -99.47054687 6.82539063 -98.71484375 6.83203125 C-96 7 -96 7 -92.44335938 7.5 C-87.68737909 8.10160997 -82.98036523 8.16182781 -78.19140625 8.16796875 C-77.2664183 8.17129715 -76.34143036 8.17462555 -75.38841248 8.17805481 C-73.43611137 8.1830949 -71.48380174 8.18546404 -69.53149414 8.18530273 C-66.60222425 8.1874706 -63.67334315 8.20560621 -60.74414062 8.22460938 C-51.91669095 8.25162121 -43.17956419 8.12226593 -34.40234375 7.11328125 C-33.72031387 7.03554977 -33.038284 6.9578183 -32.33558655 6.87773132 C-28.61091907 6.390267 -25.43050482 5.5126575 -22 4 C-20.42498431 3.64796835 -18.8406365 3.33540332 -17.25 3.0625 C-12.9470816 2.26494861 -8.99315872 1.05182666 -4.91015625 -0.51171875 C-3 -1 -3 -1 0 0 Z " fill="#366FA9" transform="translate(268,280)"/>
<path d="M0 0 C1.35329667 -0.01149606 2.70654884 -0.03191075 4.05957031 -0.06152344 C18.2664759 -0.37066957 31.64832659 2.2587174 42.59912109 11.88500977 C49.60587559 19.31112114 51.25437599 27.54942837 51.02880859 37.51000977 C50.79052734 40.29516602 50.79052734 40.29516602 49.79052734 43.29516602 C49.13052734 43.29516602 48.47052734 43.29516602 47.79052734 43.29516602 C47.79052734 43.95516602 47.79052734 44.61516602 47.79052734 45.29516602 C47.13052734 44.96516602 46.47052734 44.63516602 45.79052734 44.29516602 C46.56396484 42.93391602 46.56396484 42.93391602 47.35302734 41.54516602 C49.91324274 35.4937478 49.12877621 28.71799485 46.77490234 22.69750977 C42.58310442 14.75166498 36.42378041 8.92479148 27.97802734 5.67016602 C5.74176055 -1.0190911 -18.99176714 2.43818717 -41.20947266 7.29516602 C-41.93811523 7.45339844 -42.66675781 7.61163086 -43.41748047 7.7746582 C-47.02688282 8.56738545 -50.6236049 9.40208197 -54.20947266 10.29516602 C-54.20947266 9.63516602 -54.20947266 8.97516602 -54.20947266 8.29516602 C-36.21015924 3.57992035 -18.6799806 0.10988224 0 0 Z " fill="#125AA0" transform="translate(294.20947265625,28.704833984375)"/>
<path d="M0 0 C0.66 0.33 1.32 0.66 2 1 C1.51756836 1.45624756 1.03513672 1.91249512 0.53808594 2.38256836 C-20.91333448 22.82670026 -38.39400646 45.4481547 -41 76 C-41.04351417 79.20191753 -41.01352053 82.37526029 -40.875 85.57421875 C-41 88 -41 88 -43 91 C-44.34590566 86.32137555 -44.14744293 81.83051128 -44 77 C-43.98324219 76.236875 -43.96648437 75.47375 -43.94921875 74.6875 C-42.63229757 52.41271892 -29.20778099 30.21458407 -14.296875 14.47265625 C-11.97674896 12.03990274 -11.97674896 12.03990274 -9.9609375 9.42578125 C-8.06963181 7.08613816 -6.12415912 5.11760104 -3.875 3.125 C-3.19179687 2.50882812 -2.50859375 1.89265625 -1.8046875 1.2578125 C-1.20914063 0.84273438 -0.61359375 0.42765625 0 0 Z " fill="#1C5FA5" transform="translate(132,90)"/>
<path d="M0 0 C1.3269106 3.9807318 0.17144111 6.00551 -1 10 C-2.54551381 22.43130672 -2.00277756 33.16789023 2 45 C0.515 45.495 0.515 45.495 -1 46 C-1.64715133 43.9170757 -2.29267166 41.83364461 -2.9375 39.75 C-3.29714844 38.58984375 -3.65679687 37.4296875 -4.02734375 36.234375 C-7.6481321 24.19416313 -6.28921746 12.70925057 -2 1 C-1.34 0.67 -0.68 0.34 0 0 Z " fill="#ACCB55" transform="translate(175,390)"/>
<path d="M0 0 C0.66 0.33 1.32 0.66 2 1 C1.3709375 1.71542969 0.741875 2.43085937 0.09375 3.16796875 C-6.09103419 10.36802625 -11.32189014 17.70469072 -16 26 C-16.54527344 26.96550781 -17.09054688 27.93101563 -17.65234375 28.92578125 C-24.2138066 41.26400273 -27.55092878 54.15812563 -29 68 C-29.33 68 -29.66 68 -30 68 C-31.96378752 45.38007714 -20.07678327 25.5233677 -7 8 C-6.34 7.01 -5.68 6.02 -5 5 C-4.34 5 -3.68 5 -3 5 C-1.90833725 3.06669397 -1.90833725 3.06669397 -1 1 C-0.67 0.67 -0.34 0.34 0 0 Z " fill="#4E88BD" transform="translate(30,87)"/>
<path d="M0 0 C3.57745771 1.1924859 4.37494488 2.41641689 6.625 5.375 C7.23601562 6.16648438 7.84703125 6.95796875 8.4765625 7.7734375 C10 10 10 10 11 13 C11.99 13.33 12.98 13.66 14 14 C16.6875 16.4375 16.6875 16.4375 19 19 C19 19.66 19 20.32 19 21 C19.99 21.33 20.98 21.66 22 22 C24.6875 24.4375 24.6875 24.4375 27 27 C27 27.66 27 28.32 27 29 C28.32407669 29.68486725 29.65909241 30.34870203 31 31 C32.75 32.5 32.75 32.5 34 34 C34 34.66 34 35.32 34 36 C27.23390548 33.02291841 22.44073209 28.64587651 17.77734375 23.0625 C15.43981472 20.34993884 12.88591837 17.90317561 10.28515625 15.4453125 C9 14 9 14 9 12 C8.01 11.67 7.02 11.34 6 11 C4.39453125 9.00390625 4.39453125 9.00390625 2.8125 6.5625 C2.28269531 5.75941406 1.75289063 4.95632812 1.20703125 4.12890625 C0 2 0 2 0 0 Z " fill="#2A62B1" transform="translate(102,214)"/>
<path d="M0 0 C0.33 0 0.66 0 1 0 C1.81848666 13.48229411 -1.21479853 24.93552113 -7.0625 36.9375 C-7.4028125 37.64237549 -7.743125 38.34725098 -8.09375 39.07348633 C-9.09765625 41.02734375 -9.09765625 41.02734375 -11 44 C-11.99 44 -12.98 44 -14 44 C-13.57476184 42.39253944 -13.13429874 40.78910164 -12.6875 39.1875 C-12.44386719 38.29417969 -12.20023437 37.40085938 -11.94921875 36.48046875 C-10.95339373 33.87820996 -9.98770737 32.87558029 -8 31 C-4.34011529 24.60497013 -3.35245249 17.83243067 -2.68334961 10.62231445 C-2.31180415 6.76308177 -1.73989564 3.48653506 0 0 Z " fill="#AECC57" transform="translate(511,156)"/>
<path d="M0 0 C2.31 0.33 4.62 0.66 7 1 C7 1.66 7 2.32 7 3 C7.99 3.33 8.98 3.66 10 4 C10 4.66 10 5.32 10 6 C12.07741854 6.99329553 12.07741854 6.99329553 15 8 C16.45916036 8.59637954 17.91597403 9.19851582 19.37109375 9.8046875 C34.03708952 15.82399865 48.40685604 20.11723389 64 23 C61 25 61 25 58.89038086 24.81567383 C58.08995361 24.61482178 57.28952637 24.41396973 56.46484375 24.20703125 C55.57216797 23.98853516 54.67949219 23.77003906 53.75976562 23.54492188 C52.82841797 23.30322266 51.89707031 23.06152344 50.9375 22.8125 C50.03322266 22.59013672 49.12894531 22.36777344 48.19726562 22.13867188 C34.7532789 18.78488248 22.88586077 13.96367091 10.5 7.8125 C9.80503418 7.46743408 9.11006836 7.12236816 8.39404297 6.7668457 C5.47527818 5.30244455 2.72076949 3.81384633 0 2 C0 1.34 0 0.68 0 0 Z " fill="#185AA1" transform="translate(165,98)"/>
<path d="M0 0 C5.84167585 0.59608937 11.24716489 1.71626965 16.875 3.375 C17.63296875 3.58382812 18.3909375 3.79265625 19.171875 4.0078125 C24.75876749 5.63815123 24.75876749 5.63815123 27 9 C26.125 11.1875 26.125 11.1875 25 13 C22.60193157 12.06792057 20.20664279 11.12956735 17.8125 10.1875 C17.13896484 9.92646484 16.46542969 9.66542969 15.77148438 9.39648438 C11.97111872 7.89487648 8.35512648 6.37790517 5 4 C5 3.34 5 2.68 5 2 C3.35 1.67 1.7 1.34 0 1 C0 0.67 0 0.34 0 0 Z " fill="#3F7EB6" transform="translate(170,100)"/>
<path d="M0 0 C-0.37074504 2.59521528 -0.67493694 3.72403114 -2.70703125 5.44921875 C-3.74923828 6.06216797 -3.74923828 6.06216797 -4.8125 6.6875 C-5.49957031 7.10386719 -6.18664062 7.52023437 -6.89453125 7.94921875 C-9 9 -9 9 -11.13671875 9.39453125 C-13.18346507 9.81923486 -13.18346507 9.81923486 -13.9765625 11.87109375 C-14.48316406 12.92490234 -14.48316406 12.92490234 -15 14 C-17.0234375 15.59765625 -17.0234375 15.59765625 -19.375 17.0625 C-21.73807199 18.55226277 -23.98831836 19.99057456 -26.1640625 21.74609375 C-26.76992187 22.15988281 -27.37578125 22.57367188 -28 23 C-28.66 22.67 -29.32 22.34 -30 22 C-26.41633728 16.76387058 -21.58616445 13.51893381 -16.5 9.875 C-15.64535156 9.25496094 -14.79070312 8.63492187 -13.91015625 7.99609375 C-12.3206535 6.84302233 -10.72909168 5.69277981 -9.13476562 4.54638672 C-7.69713361 3.50499134 -6.2891082 2.42161072 -4.91210938 1.30126953 C-3 0 -3 0 0 0 Z " fill="#A6C74F" transform="translate(247,319)"/>
<path d="M0 0 C-18.18128603 8.04254535 -38.17685034 11.78941746 -58 11 C-57.67 10.34 -57.34 9.68 -57 9 C-54.82617188 8.62109375 -54.82617188 8.62109375 -51.96875 8.4375 C-50.92976562 8.36273438 -49.89078125 8.28796875 -48.8203125 8.2109375 C-47.72460938 8.14132812 -46.62890625 8.07171875 -45.5 8 C-38.14526482 7.51918196 -31.14542921 6.8403258 -24 5 C-22.4221875 4.63068359 -22.4221875 4.63068359 -20.8125 4.25390625 C-15.36684968 2.91518388 -10.08523417 1.44578728 -4.83984375 -0.546875 C-3 -1 -3 -1 0 0 Z " fill="#2566A2" transform="translate(268,280)"/>
<path d="M0 0 C1.2065625 0.0309375 1.2065625 0.0309375 2.4375 0.0625 C-1.10895601 3.60895601 -6.00498579 5.09154323 -10.5625 7.0625 C-11.19172363 7.33787598 -11.82094727 7.61325195 -12.46923828 7.89697266 C-27.1045183 14.27114896 -41.96076107 18.72508454 -57.5625 22.0625 C-57.5625 21.4025 -57.5625 20.7425 -57.5625 20.0625 C-56.51191406 19.80855469 -55.46132813 19.55460937 -54.37890625 19.29296875 C-46.9981685 17.49111502 -39.71244697 15.65402353 -32.5625 13.0625 C-31.78648437 12.80082031 -31.01046875 12.53914063 -30.2109375 12.26953125 C-23.97986187 10.11406853 -17.96124824 7.54530917 -11.9375 4.875 C-11.13062744 4.51768799 -10.32375488 4.16037598 -9.49243164 3.79223633 C-1.09196358 0.02663326 -1.09196358 0.02663326 0 0 Z " fill="#1D5DA7" transform="translate(370.5625,97.9375)"/>
<path d="M0 0 C0.99 0.33 1.98 0.66 3 1 C0.61736451 10.59861728 -4.82645174 17.33884804 -12 24 C-12.63421875 24.60457031 -13.2684375 25.20914063 -13.921875 25.83203125 C-28.12213193 39 -28.12213193 39 -35 39 C-35 38.34 -35 37.68 -35 37 C-33.3203125 35.9296875 -33.3203125 35.9296875 -31.125 34.875 C-30.40570313 34.52179688 -29.68640625 34.16859375 -28.9453125 33.8046875 C-27 33 -27 33 -25 33 C-25 32.34 -25 31.68 -25 31 C-23.42578125 29.88671875 -23.42578125 29.88671875 -21.3125 28.6875 C-17.64432155 26.46475089 -14.87288624 24.23199702 -12 21 C-11.03900391 19.93458984 -11.03900391 19.93458984 -10.05859375 18.84765625 C-5.01987067 12.9737857 -2.145335 7.42398821 0 0 Z " fill="#2260A6" transform="translate(408,58)"/>
<path d="M0 0 C0.66 0.33 1.32 0.66 2 1 C1.38479725 4.99881788 -0.60268669 7.80358226 -3 11 C-3.66 11 -4.32 11 -5 11 C-5.67644333 12.32840003 -6.34059439 13.66306079 -7 15 C-11.8060417 20.93169302 -17.06999977 26.20553173 -23 31 C-23 27.06830895 -21.60580385 25.83572772 -19 23 C-18.34 23 -17.68 23 -17 23 C-17 22.34 -17 21.68 -17 21 C-16.34 21 -15.68 21 -15 21 C-15 20.01 -15 19.02 -15 18 C-13.56278457 16.79398879 -12.12009361 15.59356876 -10.64355469 14.43603516 C-7.93236598 12.06716826 -6.08725442 9.18093914 -4.125 6.1875 C-3.52171875 5.2912793 -3.52171875 5.2912793 -2.90625 4.37695312 C-1.92943347 2.92335709 -0.96353577 1.46243318 0 0 Z " fill="#AAC953" transform="translate(494,202)"/>
<path d="M0 0 C5.17529198 0.54476758 9.52411535 1.81238816 14.3125 3.875 C19.46117201 6.02150299 24.55346398 7.90559651 29.94921875 9.359375 C32 10 32 10 36 12 C32.04 12 28.08 12 24 12 C24 11.34 24 10.68 24 10 C23.030625 9.896875 22.06125 9.79375 21.0625 9.6875 C16.59386878 9.04650782 12.09013801 7.93841008 8 6 C8 5.34 8 4.68 8 4 C7.236875 3.896875 6.47375 3.79375 5.6875 3.6875 C2.82940576 2.95635961 1.84257115 2.23048087 0 0 Z " fill="#3571B1" transform="translate(152,261)"/>
<path d="M0 0 C4.73468913 0.48207744 7.08744634 2.41060004 10.625 5.5 C11.6736928 6.40846063 12.72319182 7.31599131 13.7734375 8.22265625 C14.30420898 8.68430176 14.83498047 9.14594727 15.38183594 9.62158203 C16.96889955 10.97350737 18.58573816 12.272664 20.2265625 13.55859375 C21.22429687 14.34363281 22.22203125 15.12867188 23.25 15.9375 C24.16265625 16.64777344 25.0753125 17.35804687 26.015625 18.08984375 C26.67046875 18.72019531 27.3253125 19.35054687 28 20 C28 20.99 28 21.98 28 23 C26 22.125 26 22.125 24 21 C24 20.34 24 19.68 24 19 C23.01 19 22.02 19 21 19 C19.28641357 17.38161281 17.6292274 15.70328319 16 14 C12.02775732 10.19174899 9.46069939 8.03310529 4 7 C0 2.78378378 0 2.78378378 0 0 Z " fill="#AFCC66" transform="translate(408,15)"/>
<path d="M0 0 C0.66 0 1.32 0 2 0 C1.41689223 3.9177553 -0.49641834 6.12964337 -3 9.125 C-5.78159708 12.37869505 -5.78159708 12.37869505 -8 16 C-8.66 16 -9.32 16 -10 16 C-10.67561748 17.6630584 -11.33933281 19.33094605 -12 21 C-13.5248746 23.75905403 -15.06846647 26.50510253 -17 29 C-17.66 29 -18.32 29 -19 29 C-18.57682406 24.48612327 -16.58699891 21.46511753 -14.15625 17.76953125 C-12.95369842 16.00312605 -12.95369842 16.00312605 -12 14 C-11.34 14 -10.68 14 -10 14 C-9.30876049 12.67923879 -8.64858943 11.34221979 -8 10 C-6.70598513 8.22072956 -5.36945098 6.47188321 -4 4.75 C-3.29875 3.85796875 -2.5975 2.9659375 -1.875 2.046875 C-1.25625 1.37140625 -0.6375 0.6959375 0 0 Z " fill="#A9C953" transform="translate(287,377)"/>
<path d="M0 0 C0.99 0.33 1.98 0.66 3 1 C1.33333333 2.66666667 -0.33333333 4.33333333 -2 6 C-2.886875 6.928125 -3.77375 7.85625 -4.6875 8.8125 C-7 11 -7 11 -9 11 C-9.33 11.66 -9.66 12.32 -10 13 C-10.33 13.66 -10.66 14.32 -11 15 C-11.66 15 -12.32 15 -13 15 C-13.33 15.66 -13.66 16.32 -14 17 C-14.33 17.66 -14.66 18.32 -15 19 C-15.66 19 -16.32 19 -17 19 C-17.28875 19.598125 -17.5775 20.19625 -17.875 20.8125 C-19.1862896 23.36222977 -20.64086366 24.42724244 -23 26 C-23 21.9188114 -20.9147284 20.30992193 -18.25 17.5 C-17.76208984 16.97897705 -17.27417969 16.4579541 -16.77148438 15.92114258 C-13.11806806 12.06985222 -9.36043596 8.33095037 -5.5 4.6875 C-4.74444824 3.95853516 -4.74444824 3.95853516 -3.97363281 3.21484375 C-2.53125 1.88671875 -2.53125 1.88671875 0 0 Z " fill="#A8C653" transform="translate(314,350)"/>
<path d="M0 0 C1.62238322 0.0150942 3.24478024 0.02877412 4.8671875 0.04101562 C8.78680816 0.07360033 12.70574513 0.12511186 16.625 0.1875 C16.625 0.5175 16.625 0.8475 16.625 1.1875 C15.8314209 1.2376123 15.0378418 1.28772461 14.22021484 1.33935547 C-2.33563092 2.39275728 -18.8623686 3.57399963 -35.375 5.1875 C-25.45720315 -1.42436457 -11.43705333 -0.18770556 0 0 Z " fill="#77AFD9" transform="translate(242.375,-0.1875)"/>
<path d="M0 0 C0.495 1.485 0.495 1.485 1 3 C-0.93170681 4.34171264 -2.87056876 5.67312883 -4.8125 7 C-5.89144531 7.7425 -6.97039062 8.485 -8.08203125 9.25 C-11 11 -11 11 -14 11 C-14 11.66 -14 12.32 -14 13 C-16.56247903 14.51067078 -19.09078696 15.86939527 -21.75 17.1875 C-22.47960937 17.56841797 -23.20921875 17.94933594 -23.9609375 18.34179688 C-24.66992188 18.69693359 -25.37890625 19.05207031 -26.109375 19.41796875 C-26.75874023 19.74563232 -27.40810547 20.0732959 -28.07714844 20.41088867 C-30.4117466 21.12614837 -31.72007354 20.77719005 -34 20 C-32.92621094 19.46890625 -31.85242188 18.9378125 -30.74609375 18.390625 C-29.30984158 17.67719255 -27.87364672 16.96364471 -26.4375 16.25 C-25.73302734 15.90195312 -25.02855469 15.55390625 -24.30273438 15.1953125 C-20.83623146 13.47004838 -17.43612335 11.69746636 -14.09765625 9.734375 C-11 8 -11 8 -9 8 C-9 7.34 -9 6.68 -9 6 C-9.66 5.67 -10.32 5.34 -11 5 C-10.28972656 4.72285156 -9.57945312 4.44570313 -8.84765625 4.16015625 C-7.46900391 3.61681641 -7.46900391 3.61681641 -6.0625 3.0625 C-5.14597656 2.70285156 -4.22945313 2.34320313 -3.28515625 1.97265625 C-1.07581467 1.2003782 -1.07581467 1.2003782 0 0 Z " fill="#2861A3" transform="translate(303,258)"/>
<path d="M0 0 C27.52548445 -0.65107587 27.52548445 -0.65107587 36 3 C36.66 3.66 37.32 4.32 38 5 C29.58854778 4.27760342 21.20156003 3.3826825 12.8125 2.4375 C10.9552832 2.22963867 10.9552832 2.22963867 9.06054688 2.01757812 C6.0402495 1.67939811 3.02007196 1.34018613 0 1 C0 0.67 0 0.34 0 0 Z " fill="#669FCE" transform="translate(293,0)"/>
<path d="M0 0 C3.7112047 1.23706823 3.96060885 2.22093332 5.8125 5.5625 C8.21888421 9.77216461 10.83933778 13.55139178 13.8984375 17.30859375 C15 19 15 19 15 22 C7.73822353 19.11758434 3.41859063 9.70043764 0 3 C0 2.01 0 1.02 0 0 Z " fill="#A9CB55" transform="translate(176,437)"/>
<path d="M0 0 C0.33 0 0.66 0 1 0 C2.18742421 9.77504571 2.47227635 19.24616915 1 29 C-1 27 -1 27 -1.24291992 24.40209961 C-1.23881104 23.32968018 -1.23470215 22.25726074 -1.23046875 21.15234375 C-1.22853516 19.99025391 -1.22660156 18.82816406 -1.22460938 17.63085938 C-1.21236328 16.41205078 -1.20011719 15.19324219 -1.1875 13.9375 C-1.18685547 12.71482422 -1.18621094 11.49214844 -1.18554688 10.23242188 C-1.14011056 1.14011056 -1.14011056 1.14011056 0 0 Z " fill="#A8C954" transform="translate(250,455)"/>
<path d="M0 0 C0.99 0.33 1.98 0.66 3 1 C2.06800781 1.53367188 1.13601562 2.06734375 0.17578125 2.6171875 C-7.22512409 6.92103852 -14.20852457 11.42649392 -20.8737793 16.81201172 C-23.27074042 18.73868544 -25.04804567 20.01601522 -28 21 C-26.89904638 17.69713914 -26.3103981 17.21489099 -23.5625 15.3125 C-22.94503906 14.87550781 -22.32757813 14.43851563 -21.69140625 13.98828125 C-20 13 -20 13 -18 13 C-18 12.34 -18 11.68 -18 11 C-14.49315134 8.42535161 -10.71974202 6.25287201 -7 4 C-6.27941406 3.54367188 -5.55882813 3.08734375 -4.81640625 2.6171875 C-3 1.5 -3 1.5 0 0 Z " fill="#4A8CBD" transform="translate(81,46)"/>
<path d="M0 0 C4.82278506 0.43440527 7.58467609 2.74385931 11 5.9375 C11.52819336 6.42677979 12.05638672 6.91605957 12.60058594 7.42016602 C16.96602901 11.63570807 20.19979084 16.12838758 22 22 C22 23.32 22 24.64 22 26 C21.34 26 20.68 26 20 26 C19.359375 24.3125 19.359375 24.3125 18.75 22 C15.7910934 12.7316602 10.10283777 7.9540668 2.1953125 2.56640625 C1.47085937 2.04949219 0.74640625 1.53257813 0 1 C0 0.67 0 0.34 0 0 Z " fill="#528CBD" transform="translate(389,24)"/>
<path d="M0 0 C0.33 0 0.66 0 1 0 C0.33153294 8.15529813 -0.85303295 16.79737302 -5 24 C-5.33 24 -5.66 24 -6 24 C-6 21.03 -6 18.06 -6 15 C-5.34 15 -4.68 15 -4 15 C-3.87625 13.989375 -3.7525 12.97875 -3.625 11.9375 C-2.05660377 2.05660377 -2.05660377 2.05660377 0 0 Z " fill="#A8C750" transform="translate(257,427)"/>
<path d="M0 0 C0.99 0.33 1.98 0.66 3 1 C-0.57691253 4.87890327 -3.97381253 7.37034965 -8.6875 9.875 C-9.82574219 10.49117187 -10.96398437 11.10734375 -12.13671875 11.7421875 C-13.08160156 12.15726563 -14.02648437 12.57234375 -15 13 C-15.66 12.67 -16.32 12.34 -17 12 C-16 9 -16 9 -12.91015625 7.24609375 C-11.63239493 6.63314061 -10.34957333 6.03065074 -9.0625 5.4375 C-4.18471891 3.25342515 -4.18471891 3.25342515 0 0 Z " fill="#386FB4" transform="translate(323,92)"/>
<path d="M0 0 C-2.01111809 4.55337136 -5.02973568 6.80128996 -8.875 9.8125 C-9.50019531 10.32748047 -10.12539063 10.84246094 -10.76953125 11.37304688 C-11.37925781 11.85451172 -11.98898437 12.33597656 -12.6171875 12.83203125 C-13.17003418 13.27264893 -13.72288086 13.7132666 -14.29248047 14.16723633 C-16 15 -16 15 -18.21142578 14.63549805 C-18.80165527 14.42578369 -19.39188477 14.21606934 -20 14 C-17.71287089 12.16074213 -15.42071465 10.32848506 -13.125 8.5 C-12.47402344 7.97535156 -11.82304687 7.45070313 -11.15234375 6.91015625 C-10.52714844 6.41386719 -9.90195312 5.91757812 -9.2578125 5.40625 C-8.39373779 4.71499023 -8.39373779 4.71499023 -7.51220703 4.00976562 C-6 3 -6 3 -4 3 C-4 2.34 -4 1.68 -4 1 C-2 0 -2 0 0 0 Z " fill="#A8C551" transform="translate(348,324)"/>
<path d="M0 0 C0.66 0.33 1.32 0.66 2 1 C1.54625 1.886875 1.0925 2.77375 0.625 3.6875 C-1.0170905 6.8381865 -1.0170905 6.8381865 -1.875 9.6875 C-3.34666 12.71257889 -4.97149143 13.63717115 -8 15 C-8.66 14.67 -9.32 14.34 -10 14 C-9.67 13.01 -9.34 12.02 -9 11 C-8.34 11 -7.68 11 -7 11 C-6.30959426 9.34302621 -5.6469365 7.6744239 -5 6 C-3.5 3.6875 -3.5 3.6875 -2 2 C-1.34 2 -0.68 2 0 2 C0 1.34 0 0.68 0 0 Z " fill="#2F72A9" transform="translate(342,72)"/>
<path d="M0 0 C2.31 0.33 4.62 0.66 7 1 C7 1.66 7 2.32 7 3 C7.99 3.33 8.98 3.66 10 4 C10 4.66 10 5.32 10 6 C11.63596029 6.73882078 13.31503622 7.38103371 15 8 C16.60816721 8.69920314 18.21213557 9.40811751 19.8125 10.125 C20.99779297 10.65480469 20.99779297 10.65480469 22.20703125 11.1953125 C22.79871094 11.46085937 23.39039063 11.72640625 24 12 C20.56780163 13.14406612 20.22435949 12.93525581 17.12890625 11.453125 C16.38962891 11.1025 15.65035156 10.751875 14.88867188 10.390625 C14.12103516 10.01421875 13.35339844 9.6378125 12.5625 9.25 C11.79873047 8.8890625 11.03496094 8.528125 10.24804688 8.15625 C2.75459168 4.55626108 2.75459168 4.55626108 0 2 C0 1.34 0 0.68 0 0 Z " fill="#1659A0" transform="translate(165,98)"/>
<path d="M0 0 C0.99 0.33 1.98 0.66 3 1 C-0.14602301 5.04488672 -2.58930312 7.37458519 -7 10 C-9.42441835 12.24726878 -11.72268175 14.60454997 -14 17 C-14.66 16.34 -15.32 15.68 -16 15 C-15.01 14.67 -14.02 14.34 -13 14 C-12.31731862 12.67479497 -11.6492959 11.34187818 -11 10 C-10.34 10 -9.68 10 -9 10 C-8.32523692 8.67074569 -7.66003444 7.33662888 -7 6 C-5.37890625 4.26171875 -5.37890625 4.26171875 -3.5625 2.6875 C-2.96566406 2.15511719 -2.36882813 1.62273437 -1.75390625 1.07421875 C-1.17511719 0.71972656 -0.59632812 0.36523438 0 0 Z " fill="#558CB2" transform="translate(48,69)"/>
<path d="M0 0 C6.54041555 7.21701026 7.33526665 13.75146226 7.203125 23.14453125 C7 26 7 26 6 29 C5.34 29 4.68 29 4 29 C4 29.66 4 30.32 4 31 C3.34 30.67 2.68 30.34 2 30 C2.515625 29.0925 3.03125 28.185 3.5625 27.25 C6.07694657 21.34703734 5.36135315 14.43631883 3.03125 8.5546875 C2.06312137 6.68066709 1.03570305 4.83753768 0 3 C0 2.01 0 1.02 0 0 Z " fill="#1F61A9" transform="translate(338,43)"/>
<path d="M0 0 C0.55816406 0.23074219 1.11632812 0.46148437 1.69140625 0.69921875 C-0.03581059 1.97270087 -1.76545613 3.24288932 -3.49609375 4.51171875 C-4.45902344 5.21941406 -5.42195313 5.92710937 -6.4140625 6.65625 C-11.66246923 10.36059105 -11.66246923 10.36059105 -14.30859375 11.69921875 C-15.29859375 11.36921875 -16.28859375 11.03921875 -17.30859375 10.69921875 C-14.04399104 7.97871649 -10.66378771 5.41086496 -7.24609375 2.88671875 C-5.99119141 1.94892578 -5.99119141 1.94892578 -4.7109375 0.9921875 C-2.30859375 -0.30078125 -2.30859375 -0.30078125 0 0 Z " fill="#A5C951" transform="translate(363.30859375,243.30078125)"/>
<path d="M0 0 C3.68379203 4.21365252 6.1058844 8.73743786 8.625 13.6875 C9.40545667 15.21398142 10.18916898 16.73880392 10.9765625 18.26171875 C11.31768066 18.93162842 11.65879883 19.60153809 12.01025391 20.29174805 C13.00365697 22.17521799 13.00365697 22.17521799 15 24 C14.67 24.99 14.34 25.98 14 27 C13.34 27 12.68 27 12 27 C11.00127728 24.91230852 10.10317234 22.77627863 9.25 20.625 C6.99142513 15.06058996 4.40437014 10.02718008 1.1015625 4.98828125 C0 3 0 3 0 0 Z " fill="#A1C142" transform="translate(432,46)"/>
<path d="M0 0 C0.99 0.33 1.98 0.66 3 1 C1.22745775 8.14081308 -1.81493163 13.72572616 -7 19 C-9.22265625 20.25390625 -9.22265625 20.25390625 -11 21 C-10.60167969 20.49210937 -10.20335937 19.98421875 -9.79296875 19.4609375 C-5.03443956 13.27832293 -1.96228493 7.54724973 0 0 Z " fill="#2A68A3" transform="translate(408,58)"/>
<path d="M0 0 C-1.52714693 4.13562772 -4.49588223 6.23733257 -7.9375 8.75 C-8.74477539 9.36681641 -8.74477539 9.36681641 -9.56835938 9.99609375 C-13.61515002 13 -13.61515002 13 -17 13 C-17 12.34 -17 11.68 -17 11 C-14.98828125 9.4140625 -14.98828125 9.4140625 -12.3125 7.625 C-9.43905741 5.67821216 -6.69636111 3.7532934 -4 1.5625 C-2 0 -2 0 0 0 Z " fill="#A7C853" transform="translate(442,256)"/>
<path d="M0 0 C-9.16611215 3.29039923 -17.26438048 4.29651633 -27 4 C-23.644336 1.30387256 -21.3393759 0.36930859 -17 0 C-16.01 0.33 -15.02 0.66 -14 1 C-11.44992177 0.59130633 -8.98258524 -0.01928561 -6.47265625 -0.625 C-3.94192174 -1.00880808 -2.40385026 -0.80314255 0 0 Z " fill="#3875AC" transform="translate(265,273)"/>
<path d="M0 0 C-2.88112668 1.92075112 -4.06407406 2.35516786 -7.34375 2.8515625 C-8.17777344 2.98046875 -9.01179688 3.109375 -9.87109375 3.2421875 C-10.73863281 3.36851563 -11.60617187 3.49484375 -12.5 3.625 C-13.36753906 3.7590625 -14.23507812 3.893125 -15.12890625 4.03125 C-18.46439862 4.53647141 -21.6209437 5 -25 5 C-25 4.34 -25 3.68 -25 3 C-21.95919579 2.49420286 -18.91753354 1.99519241 -15.875 1.5 C-14.59109375 1.28537109 -14.59109375 1.28537109 -13.28125 1.06640625 C-8.80328495 0.34304266 -4.55436565 -0.17918816 0 0 Z " fill="#2566A3" transform="translate(312,119)"/>
<path d="M0 0 C2.4375 0.8125 2.4375 0.8125 5 2 C5.33 2.99 5.66 3.98 6 5 C7.3153341 5.70151152 8.65117592 6.36525925 10 7 C11.75 8.5 11.75 8.5 13 10 C13 10.66 13 11.32 13 12 C8.03808163 9.81675592 3.06896265 7.09144867 0.5625 2.1875 C0.376875 1.465625 0.19125 0.74375 0 0 Z " fill="#2E6CA7" transform="translate(123,238)"/>
<path d="M0 0 C0.66 1.32 1.32 2.64 2 4 C0.71283353 5.00578589 -0.57988658 6.00446798 -1.875 7 C-2.59429687 7.556875 -3.31359375 8.11375 -4.0546875 8.6875 C-6 10 -6 10 -8 10 C-8 10.66 -8 11.32 -8 12 C-8.99 11.67 -9.98 11.34 -11 11 C-7.33333333 7.33333333 -3.66666667 3.66666667 0 0 Z " fill="#A6C64E" transform="translate(405,207)"/>
<path d="M0 0 C3.70605319 3.49835844 6.52199492 7.00850064 9.3125 11.3125 C10.00988281 12.38113281 10.70726562 13.44976562 11.42578125 14.55078125 C11.94527344 15.35902344 12.46476562 16.16726562 13 17 C12.01 17 11.02 17 10 17 C8.12488264 14.76462387 6.46383342 12.57851771 4.8125 10.1875 C4.34908203 9.54490234 3.88566406 8.90230469 3.40820312 8.24023438 C0 3.39646999 0 3.39646999 0 0 Z " fill="#9CBE40" transform="translate(418,26)"/>
<path d="M0 0 C5.35152885 0.32433508 8.28280043 3.49704824 12 7 C11.34 7.66 10.68 8.32 10 9 C5.53467445 7.91383973 2.97576032 5.40086893 0 2 C0 1.34 0 0.68 0 0 Z " fill="#A7C676" transform="translate(408,15)"/>
<path d="M0 0 C0.99 0.33 1.98 0.66 3 1 C2.34 1.28875 1.68 1.5775 1 1.875 C0.01 2.431875 0.01 2.431875 -1 3 C-1 3.66 -1 4.32 -1 5 C-3.1875 6.5078125 -3.1875 6.5078125 -6 8.125 C-6.928125 8.66382813 -7.85625 9.20265625 -8.8125 9.7578125 C-9.8953125 10.37269531 -9.8953125 10.37269531 -11 11 C-10.66938569 8.01785896 -10.09579935 7.0860134 -7.8203125 5.04296875 C-6.93085938 4.43066406 -6.04140625 3.81835938 -5.125 3.1875 C-4.24070312 2.56230469 -3.35640625 1.93710937 -2.4453125 1.29296875 C-1.63835937 0.86628906 -0.83140625 0.43960937 0 0 Z " fill="#A6C950" transform="translate(410,278)"/>
<path d="M0 0 C4.31746329 1.56998665 8.11652997 3.56331292 12 6 C12 6.66 12 7.32 12 8 C6.2902045 7.58221009 3.39042858 5.42453429 -1 2 C-0.67 1.34 -0.34 0.68 0 0 Z " fill="#A7CA53" transform="translate(236,497)"/>
<path d="M0 0 C4.75 0.875 4.75 0.875 7 2 C7 2.66 7 3.32 7 4 C7.928125 4.2165625 7.928125 4.2165625 8.875 4.4375 C11 5 11 5 13 6 C13 6.99 13 7.98 13 9 C11.68 8.67 10.36 8.34 9 8 C9 7.34 9 6.68 9 6 C7.88625 5.9071875 7.88625 5.9071875 6.75 5.8125 C3.1814261 4.75814862 2.07754772 3.00090227 0 0 Z " fill="#2F69AF" transform="translate(137,251)"/>
<path d="M0 0 C1.32 0 2.64 0 4 0 C4 0.99 4 1.98 4 3 C2.57421875 4.38671875 2.57421875 4.38671875 0.6875 5.6875 C0.07261719 6.12449219 -0.54226563 6.56148438 -1.17578125 7.01171875 C-3 8 -3 8 -6 8 C-6 7.34 -6 6.68 -6 6 C-5.195625 5.71125 -4.39125 5.4225 -3.5625 5.125 C-2.2940625 4.568125 -2.2940625 4.568125 -1 4 C-0.11306697 1.95894361 -0.11306697 1.95894361 0 0 Z " fill="#A8C651" transform="translate(358,313)"/>
<path d="M0 0 C-1.32332319 3.96996957 -4.0089399 5.76036395 -7.24609375 8.14453125 C-9 9 -9 9 -12 8 C-9.53473055 3.9395562 -4.97233375 0 0 0 Z " fill="#A8C54F" transform="translate(378,302)"/>
<path d="M0 0 C5.19644079 1.59890486 10.06612142 3.74138003 15 6 C14.67 6.66 14.34 7.32 14 8 C9.30943359 7.4136792 4.91031269 5.64951093 1 3 C0.67 2.01 0.34 1.02 0 0 Z " fill="#296AA6" transform="translate(89,264)"/>
<path d="M0 0 C4.92491611 -0.69193036 9.54933008 -0.29711996 14 2 C13.67 2.66 13.34 3.32 13 4 C9.83984375 3.7578125 9.83984375 3.7578125 5.9375 3.125 C4.00197266 2.81949219 4.00197266 2.81949219 2.02734375 2.5078125 C1.02832031 2.34023438 0.02929688 2.17265625 -1 2 C-0.67 1.34 -0.34 0.68 0 0 Z " fill="#2B69A9" transform="translate(163,287)"/>
<path d="M0 0 C3.89006773 1.38780795 6.96558708 3.2152227 10.3125 5.625 C11.19550781 6.25664062 12.07851562 6.88828125 12.98828125 7.5390625 C13.65214844 8.02117187 14.31601563 8.50328125 15 9 C14.67 9.66 14.34 10.32 14 11 C11.66103978 9.55008333 9.32900732 8.09074592 7 6.625 C6.33226562 6.2125 5.66453125 5.8 4.9765625 5.375 C3.28272806 4.30339045 1.63691136 3.15669501 0 2 C0 1.34 0 0.68 0 0 Z " fill="#1D5CAD" transform="translate(54,245)"/>
<path d="M0 0 C0.66 0.99 1.32 1.98 2 3 C1.171875 5.26171875 1.171875 5.26171875 -0.25 7.6875 C-0.70890625 8.49574219 -1.1678125 9.30398438 -1.640625 10.13671875 C-2.08921875 10.75160156 -2.5378125 11.36648438 -3 12 C-3.66 12 -4.32 12 -5 12 C-4.42365861 7.24518354 -2.44931479 4.02951788 0 0 Z " fill="#A9C44F" transform="translate(266,407)"/>
<path d="M0 0 C5.41798672 0.69165788 10.6822785 1.75799248 16 3 C16 3.33 16 3.66 16 4 C12.04 4 8.08 4 4 4 C4 3.34 4 2.68 4 2 C2.03327085 0.8499169 2.03327085 0.8499169 0 0 Z " fill="#407CB5" transform="translate(172,269)"/>
<path d="M0 0 C0.66 0.66 1.32 1.32 2 2 C0.54550599 3.0055761 -0.91372443 4.00430435 -2.375 5 C-3.59316406 5.8353125 -3.59316406 5.8353125 -4.8359375 6.6875 C-7 8 -7 8 -9 8 C-9 7.34 -9 6.68 -9 6 C-7.03125 4.4921875 -7.03125 4.4921875 -4.5 2.875 C-3.6646875 2.33617187 -2.829375 1.79734375 -1.96875 1.2421875 C-1.3190625 0.83226562 -0.669375 0.42234375 0 0 Z " fill="#A4C650" transform="translate(258,310)"/>
<path d="M0 0 C-1.50383297 4.21073233 -4.20664956 5.83237117 -8 8 C-8.99 8 -9.98 8 -11 8 C-11 7.34 -11 6.68 -11 6 C-9.1015625 4.4921875 -9.1015625 4.4921875 -6.625 2.875 C-5.81289063 2.33617187 -5.00078125 1.79734375 -4.1640625 1.2421875 C-2 0 -2 0 0 0 Z " fill="#A6C44E" transform="translate(391,293)"/>
<path d="M0 0 C1.90765822 2.86148733 2.4283509 4.35300379 3.0625 7.625 C3.47094016 10.59769652 3.47094016 10.59769652 5 13 C5.04063832 14.66617115 5.042721 16.33388095 5 18 C0.95751381 13.59001506 0.08258468 8.31237105 -0.125 2.5 C-0.08375 1.675 -0.0425 0.85 0 0 Z " fill="#2261A9" transform="translate(90,182)"/>
<path d="M0 0 C0.66 0 1.32 0 2 0 C3.3271261 3.9813783 3.06915913 7.85045227 3 12 C2.34 12 1.68 12 1 12 C-0.3271261 8.0186217 -0.06915913 4.14954773 0 0 Z " fill="#A4C54B" transform="translate(452,95)"/>
<path d="M0 0 C4.43458973 1.3937282 6.87378374 3.60582235 10 7 C3.51020408 6.51020408 3.51020408 6.51020408 1.0625 4.0625 C0 2 0 2 0 0 Z " fill="#A4C14C" transform="translate(413,21)"/>
<path d="M0 0 C0.99 0 1.98 0 3 0 C1.64531705 4.87685861 -0.71675909 6.48592381 -5 9 C-4.42636089 5.12793601 -2.65894107 2.81534937 0 0 Z " fill="#A6C44C" transform="translate(420,191)"/>
<path d="M0 0 C2 1.8125 2 1.8125 4 4 C4 4.99 4 5.98 4 7 C4.66 7 5.32 7 6 7 C7.125 9.5 7.125 9.5 8 12 C4.74905801 10.95505436 3.43126714 9.40864509 1.75 6.5625 C0 3 0 3 0 0 Z " fill="#2F6DA9" transform="translate(13,201)"/>
<path d="M0 0 C2.31 0.33 4.62 0.66 7 1 C7 1.66 7 2.32 7 3 C7.99 3.66 8.98 4.32 10 5 C8.375 5.75 8.375 5.75 6 6 C2.75 4.1875 2.75 4.1875 0 2 C0 1.34 0 0.68 0 0 Z " fill="#3D70A3" transform="translate(165,98)"/>
<path d="M0 0 C0.99 0.33 1.98 0.66 3 1 C-0.08290155 5.22797927 -0.08290155 5.22797927 -2 7 C-4.8125 7.375 -4.8125 7.375 -7 7 C-4.66666667 4.66666667 -2.33333333 2.33333333 0 0 Z " fill="#4584B8" transform="translate(48,69)"/>
<path d="M0 0 C0 0.33 0 0.66 0 1 C-1.72945653 0.85764543 -3.45855654 0.71095618 -5.1875 0.5625 C-6.63189453 0.44068359 -6.63189453 0.44068359 -8.10546875 0.31640625 C-10.78649602 0.02333849 -13.3662986 -0.42703754 -16 -1 C-16 -1.33 -16 -1.66 -16 -2 C-10.21989801 -3.67318742 -5.43417542 -2.16937438 0 0 Z " fill="#75A5D2" transform="translate(331,4)"/>
<path d="M0 0 C0.33 0.99 0.66 1.98 1 3 C-0.43359375 4.38671875 -0.43359375 4.38671875 -2.4375 5.6875 C-3.42556641 6.34298828 -3.42556641 6.34298828 -4.43359375 7.01171875 C-4.95050781 7.33785156 -5.46742188 7.66398437 -6 8 C-6.33 7.01 -6.66 6.02 -7 5 C-5.09134309 2.48860933 -2.84507569 1.27537876 0 0 Z " fill="#A9C952" transform="translate(449,249)"/>
<path d="M0 0 C0.33 0.66 0.66 1.32 1 2 C-0.26391488 3.00873016 -1.53640883 4.00671822 -2.8125 5 C-3.87404297 5.8353125 -3.87404297 5.8353125 -4.95703125 6.6875 C-7 8 -7 8 -10 8 C-10 7.01 -10 6.02 -10 5 C-7.8125 3.61328125 -7.8125 3.61328125 -5 2.3125 C-4.071875 1.87550781 -3.14375 1.43851562 -2.1875 0.98828125 C-1.1046875 0.49908203 -1.1046875 0.49908203 0 0 Z " fill="#3B71B3" transform="translate(59,63)"/>
<path d="M0 0 C0.98484375 0.01804688 1.9696875 0.03609375 2.984375 0.0546875 C4.10585937 0.08949219 4.10585937 0.08949219 5.25 0.125 C0.07976131 3.57182579 -3.72365319 3.18847297 -9.75 2.125 C-6.40060119 0.09941119 -3.88037449 -0.09238987 0 0 Z " fill="#6AA1CD" transform="translate(229.75,-0.125)"/>
<path d="M0 0 C3.93673644 1.31224548 6.22719294 2.91910327 9 6 C8.34 6.66 7.68 7.32 7 8 C3.75700849 5.61042731 1.49097658 3.7952131 0 0 Z " fill="#A8C850" transform="translate(225,489)"/>
<path d="M0 0 C-5.14285714 5.57142857 -5.14285714 5.57142857 -9 6 C-8.6875 4.125 -8.6875 4.125 -8 2 C-4.77208445 -0.1519437 -3.71599191 -0.20086443 0 0 Z " fill="#A5C954" transform="translate(273,303)"/>
<path d="M0 0 C4.05283743 1.35094581 4.87056128 3.37995418 7 7 C7.75 9.375 7.75 9.375 8 11 C7.34 11 6.68 11 6 11 C4.4921875 9.1015625 4.4921875 9.1015625 2.875 6.625 C2.33617188 5.81289062 1.79734375 5.00078125 1.2421875 4.1640625 C0 2 0 2 0 0 Z " fill="#2E6CA8" transform="translate(102,214)"/>
<path d="M0 0 C0.66 0 1.32 0 2 0 C3.2890625 2.1171875 3.2890625 2.1171875 4.625 4.875 C5.07101563 5.77992188 5.51703125 6.68484375 5.9765625 7.6171875 C7 10 7 10 7 12 C6.34 12 5.68 12 5 12 C3.7109375 9.8828125 3.7109375 9.8828125 2.375 7.125 C1.92898437 6.22007812 1.48296875 5.31515625 1.0234375 4.3828125 C0 2 0 2 0 0 Z " fill="#276AA4" transform="translate(95,201)"/>
<path d="M0 0 C0.66 0.33 1.32 0.66 2 1 C1.125 3 1.125 3 0 5 C-0.66 5 -1.32 5 -2 5 C-2.33 5.99 -2.66 6.98 -3 8 C-3.66 7.67 -4.32 7.34 -5 7 C-3.72270337 4.15064597 -2.47284763 1.95767104 0 0 Z " fill="#A2CE5B" transform="translate(303,360)"/>
<path d="M0 0 C0.66 0.33 1.32 0.66 2 1 C2 1.66 2 2.32 2 3 C1.34 3 0.68 3 0 3 C-0.33 3.99 -0.66 4.98 -1 6 C-3.5625 7.6875 -3.5625 7.6875 -6 9 C-4.47291037 5.56404834 -2.40072955 2.88087546 0 0 Z " fill="#3574B0" transform="translate(27,93)"/>
<path d="M0 0 C1.32 0.99 2.64 1.98 4 3 C1.625 4.5625 1.625 4.5625 -1 6 C-1.66 5.67 -2.32 5.34 -3 5 C-2.67 4.01 -2.34 3.02 -2 2 C-1.34 2 -0.68 2 0 2 C0 1.34 0 0.68 0 0 Z " fill="#356CB0" transform="translate(335,81)"/>
<path d="M0 0 C2.9719385 1.12451727 5.33440687 2.22293791 8 4 C7.6875 6.125 7.6875 6.125 7 8 C5.83035398 6.8572081 4.66435444 5.71068285 3.5 4.5625 C2.8503125 3.92441406 2.200625 3.28632813 1.53125 2.62890625 C0 1 0 1 0 0 Z " fill="#B6D05F" transform="translate(419,23)"/>
<path d="M0 0 C8.57142857 -0.28571429 8.57142857 -0.28571429 12 2 C4.64516129 3.22580645 4.64516129 3.22580645 1.5 2.125 C1.005 1.75375 0.51 1.3825 0 1 C0 0.67 0 0.34 0 0 Z " fill="#6298C6" transform="translate(309,0)"/>
<path d="M0 0 C3.33333333 1.66666667 6.66666667 3.33333333 10 5 C8.3125 5.6875 8.3125 5.6875 6 6 C3.3125 4.75 3.3125 4.75 1 3 C0.67 2.01 0.34 1.02 0 0 Z " fill="#2868A4" transform="translate(68,253)"/>
<path d="M0 0 C0.99 0.33 1.98 0.66 3 1 C2.39816251 3.02045442 1.72693904 5.02111039 1 7 C0.01 7.495 0.01 7.495 -1 8 C-1.125 2.25 -1.125 2.25 0 0 Z " fill="#2C67B1" transform="translate(408,58)"/>
<path d="M0 0 C-1.36983503 3.16115776 -1.9890638 3.9927092 -5 6 C-5.66 5.34 -6.32 4.68 -7 4 C-2.25 0 -2.25 0 0 0 Z " fill="#A9C650" transform="translate(323,344)"/>
<path d="M0 0 C0.99 0.33 1.98 0.66 3 1 C2.52624385 2.50171762 2.04586196 4.00134664 1.5625 5.5 C1.29566406 6.3353125 1.02882813 7.170625 0.75390625 8.03125 C0.50511719 8.6809375 0.25632812 9.330625 0 10 C-0.33 10 -0.66 10 -1 10 C-1.125 2.25 -1.125 2.25 0 0 Z " fill="#3573B0" transform="translate(92,140)"/>
<path d="M0 0 C2.475 0.495 2.475 0.495 5 1 C5 3 5 5 5 7 C3.29115995 5.37660195 1.62553283 3.70680947 0 2 C0 1.34 0 0.68 0 0 Z " fill="#82A978" transform="translate(408,15)"/>
</svg>
